{
  "accessors": [
    {
      "bufferView": 2,
      "componentType": 5126,
      "count": 28497,
      "max": [
        220.458251953125,
        163.52166748046875,
        87.88957977294922
      ],
      "min": [
        -202.93466186523438,
        -479.85321044921875,
        -84.96351623535156
      ],
      "type": "VEC3"
    },
    {
      "bufferView": 2,
      "byteOffset": 341964,
      "componentType": 5126,
      "count": 28497,
      "max": [
        1.0,
        0.9991922378540039,
        1.0
      ],
      "min": [
        -1.0,
        -0.9999912977218628,
        -1.0
      ],
      "type": "VEC3"
    },
    {
      "bufferView": 1,
      "componentType": 5126,
      "count": 28497,
      "max": [
        1.0,
        1.3166841268539429
      ],
      "min": [
        -3.8496093424100764e-08,
        -0.04619932174682617
      ],
      "type": "VEC2"
    },
    {
      "bufferView": 0,
      "componentType": 5125,
      "count": 67347,
      "type": "SCALAR"
    },
    {
      "bufferView": 2,
      "byteOffset": 683928,
      "componentType": 5126,
      "count": 2474,
      "max": [
        222.64706420898438,
        165.83837890625,
        71.78271484375
      ],
      "min": [
        -202.53173828125,
        -480.03509521484375,
        -60.24300765991211
      ],
      "type": "VEC3"
    },
    {
      "bufferView": 2,
      "byteOffset": 713616,
      "componentType": 5126,
      "count": 2474,
      "max": [
        0.9941272139549255,
        0.9737820029258728,
        1.0
      ],
      "min": [
        -0.9483192563056946,
        -0.9999944567680359,
        -1.0
      ],
      "type": "VEC3"
    },
    {
      "bufferView": 1,
      "byteOffset": 227976,
      "componentType": 5126,
      "count": 2474,
      "max": [
        0.7101622223854065,
        1.3166841268539429
      ],
      "min": [
        0.22250215709209442,
        -0.30666792392730713
      ],
      "type": "VEC2"
    },
    {
      "bufferView": 0,
      "byteOffset": 269388,
      "componentType": 5125,
      "count": 5964,
      "type": "SCALAR"
    },
    {
      "bufferView": 2,
      "byteOffset": 743304,
      "componentType": 5126,
      "count": 211,
      "max": [
        166.11038208007813,
        43.35418701171875,
        86.99166107177734
      ],
      "min": [
        -190.46151733398438,
        -481.9019775390625,
        -5.8716278076171875
      ],
      "type": "VEC3"
    },
    {
      "bufferView": 2,
      "byteOffset": 745836,
      "componentType": 5126,
      "count": 211,
      "max": [
        0.9943398237228394,
        0.9262694716453552,
        0.8605901002883911
      ],
      "min": [
        -0.9943398237228394,
        -0.9558170437812805,
        -0.8605893850326538
      ],
      "type": "VEC3"
    },
    {
      "bufferView": 1,
      "byteOffset": 247768,
      "componentType": 5126,
      "count": 211,
      "max": [
        0.6318361163139343,
        1.2496833801269531
      ],
      "min": [
        0.3439413011074066,
        -0.03844106197357178
      ],
      "type": "VEC2"
    },
    {
      "bufferView": 0,
      "byteOffset": 293244,
      "componentType": 5125,
      "count": 450,
      "type": "SCALAR"
    },
    {
      "bufferView": 2,
      "byteOffset": 748368,
      "componentType": 5126,
      "count": 12813,
      "max": [
        199.49549865722656,
        165.01492309570313,
        179.36630249023438
      ],
      "min": [
        -165.954345703125,
        -466.93426513671875,
        -84.96351623535156
      ],
      "type": "VEC3"
    },
    {
      "bufferView": 2,
      "byteOffset": 902124,
      "componentType": 5126,
      "count": 12813,
      "max": [
        0.9983217120170593,
        0.9996916055679321,
        1.0
      ],
      "min": [
        -0.9975981116294861,
        -0.999691903591156,
        -1.0
      ],
      "type": "VEC3"
    },
    {
      "bufferView": 1,
      "byteOffset": 249456,
      "componentType": 5126,
      "count": 12813,
      "max": [
        0.9922466278076172,
        1.2641630172729492
      ],
      "min": [
        -3.574467832834216e-09,
        -0.040113747119903564
      ],
      "type": "VEC2"
    },
    {
      "bufferView": 0,
      "byteOffset": 295044,
      "componentType": 5125,
      "count": 22320,
      "type": "SCALAR"
    },
    {
      "bufferView": 2,
      "byteOffset": 1055880,
      "componentType": 5126,
      "count": 276,
      "max": [
        144.17701721191406,
        14.973098754882813,
        65.53840637207031
      ],
      "min": [
        -106.11943054199219,
        -277.6670227050781,
        -33.42339324951172
      ],
      "type": "VEC3"
    },
    {
      "bufferView": 2,
      "byteOffset": 1059192,
      "componentType": 5126,
      "count": 276,
      "max": [
        0.9142477512359619,
        0.889992892742157,
        0.8804718255996704
      ],
      "min": [
        -0.9344381093978882,
        -0.8900032639503479,
        -0.8804717659950256
      ],
      "type": "VEC3"
    },
    {
      "bufferView": 1,
      "byteOffset": 351960,
      "componentType": 5126,
      "count": 276,
      "max": [
        1.0,
        1.2440602779388428
      ],
      "min": [
        0.0,
        -0.03022974729537964
      ],
      "type": "VEC2"
    },
    {
      "bufferView": 0,
      "byteOffset": 384324,
      "componentType": 5125,
      "count": 768,
      "type": "SCALAR"
    },
    {
      "bufferView": 2,
      "byteOffset": 1062504,
      "componentType": 5126,
      "count": 832,
      "max": [
        83.39627075195313,
        -115.42928314208984,
        107.16752624511719
      ],
      "min": [
        -152.17344665527344,
        -407.6554260253906,
        38.36096954345703
      ],
      "type": "VEC3"
    },
    {
      "bufferView": 2,
      "byteOffset": 1072488,
      "componentType": 5126,
      "count": 832,
      "max": [
        0.9155553579330444,
        0.9958598017692566,
        1.0
      ],
      "min": [
        -0.9996873736381531,
        -0.9958598017692566,
        -1.0
      ],
      "type": "VEC3"
    },
    {
      "bufferView": 1,
      "byteOffset": 354168,
      "componentType": 5126,
      "count": 832,
      "max": [
        0.589759349822998,
        0.7510528564453125
      ],
      "min": [
        0.3439413011074066,
        -0.03608137369155884
      ],
      "type": "VEC2"
    },
    {
      "bufferView": 0,
      "byteOffset": 387396,
      "componentType": 5125,
      "count": 1608,
      "type": "SCALAR"
    },
    {
      "bufferView": 2,
      "byteOffset": 1082472,
      "componentType": 5126,
      "count": 690,
      "max": [
        48.66331100463867,
        -172.491943359375,
        98.41738891601563
      ],
      "min": [
        -164.237548828125,
        -414.5421142578125,
        34.6738395690918
      ],
      "type": "VEC3"
    },
    {
      "bufferView": 2,
      "byteOffset": 1090752,
      "componentType": 5126,
      "count": 690,
      "max": [
        0.9260952472686768,
        0.9941533207893372,
        0.9986319541931152
      ],
      "min": [
        -0.9261004328727722,
        -0.994152843952179,
        -0.9986321330070496
      ],
      "type": "VEC3"
    },
    {
      "bufferView": 1,
      "byteOffset": 360824,
      "componentType": 5126,
      "count": 690,
      "max": [
        0.5897753834724426,
        0.7582446336746216
      ],
      "min": [
        0.3512784540653229,
        -0.04218435287475586
      ],
      "type": "VEC2"
    },
    {
      "bufferView": 0,
      "byteOffset": 393828,
      "componentType": 5125,
      "count": 1416,
      "type": "SCALAR"
    },
    {
      "bufferView": 2,
      "byteOffset": 1099032,
      "componentType": 5126,
      "count": 64326,
      "max": [
        210.99180603027344,
        59.60234069824219,
        -0.9413528442382813
      ],
      "min": [
        -192.7576446533203,
        -470.42608642578125,
        -94.67774963378906
      ],
      "type": "VEC3"
    },
    {
      "bufferView": 2,
      "byteOffset": 1870944,
      "componentType": 5126,
      "count": 64326,
      "max": [
        0.9995906352996826,
        0.9982737302780151,
        1.0
      ],
      "min": [
        -0.9994240403175354,
        -0.9971482753753662,
        -1.0
      ],
      "type": "VEC3"
    },
    {
      "bufferView": 1,
      "byteOffset": 366344,
      "componentType": 5126,
      "count": 64326,
      "max": [
        0.8750000596046448,
        1.0
      ],
      "min": [
        0.125,
        0.0
      ],
      "type": "VEC2"
    },
    {
      "bufferView": 0,
      "byteOffset": 399492,
      "componentType": 5125,
      "count": 183168,
      "type": "SCALAR"
    }
  ],
  "asset": {
    "extras": {
      "author": "s9pata (https://sketchfab.com/s9pata)",
      "license": "CC-BY-4.0 (http://creativecommons.org/licenses/by/4.0/)",
      "source": "https://sketchfab.com/3d-models/low-poly-m1-abrams-283791f26b034b92816f850757fbf403",
      "title": "Low poly M1 \"Abrams\""
    },
    "generator": "Sketchfab-15.42.0",
    "version": "2.0"
  },
  "bufferViews": [
    {
      "buffer": 0,
      "byteLength": 1132164,
      "name": "floatBufferViews",
      "target": 34963
    },
    {
      "buffer": 0,
      "byteLength": 880952,
      "byteOffset": 1132164,
      "byteStride": 8,
      "name": "floatBufferViews",
      "target": 34962
    },
    {
      "buffer": 0,
      "byteLength": 2642856,
      "byteOffset": 2013116,
      "byteStride": 12,
      "name": "floatBufferViews",
      "target": 34962
    }
  ],
  "buffers": [
    {
      "byteLength": 4655972,
      "uri": "scene.bin"
    }
  ],
  "materials": [
    {
      "doubleSided": true,
      "name": "Material.002",
      "pbrMetallicRoughness": {
        "baseColorFactor": [
          0.190408,
          0.142668,
          0.0829246,
          1.0
        ],
        "metallicFactor": 0.0,
        "roughnessFactor": 0.9667934848103217
      }
    },
    {
      "doubleSided": true,
      "name": "Material.001",
      "pbrMetallicRoughness": {
        "baseColorFactor": [
          0.443283,
          0.328642,
          0.186515,
          1.0
        ],
        "metallicFactor": 0.0,
        "roughnessFactor": 0.9233580752801527
      }
    },
    {
      "doubleSided": true,
      "name": "Material.004",
      "pbrMetallicRoughness": {
        "baseColorFactor": [
          0.132604,
          0.0405279,
          0.516717,
          1.0
        ],
        "metallicFactor": 0.0,
        "roughnessFactor": 0.9701214940515474
      }
    },
    {
      "doubleSided": true,
      "name": "Material.003",
      "pbrMetallicRoughness": {
        "baseColorFactor": [
          0.0774364,
          0.0589654,
          0.0355202,
          1.0
        ],
        "metallicFactor": 0.0,
        "roughnessFactor": 0.9863153553971045
      }
    },
    {
      "doubleSided": true,
      "name": "Material.007",
      "pbrMetallicRoughness": {
        "baseColorFactor": [
          0.0,
          0.0,
          0.0,
          1.0
        ],
        "metallicFactor": 0.0
      }
    },
    {
      "doubleSided": true,
      "name": "Material.005",
      "pbrMetallicRoughness": {
        "baseColorFactor": [
          0.119578,
          0.119578,
          0.119578,
          1.0
        ],
        "metallicFactor": 0.0,
        "roughnessFactor": 0.973261546338653
      }
    },
    {
      "doubleSided": true,
      "name": "Material.006",
      "pbrMetallicRoughness": {
        "baseColorFactor": [
          0.0419797,
          0.116701,
          0.0365353,
          1.0
        ],
        "metallicFactor": 0.0,
        "roughnessFactor": 0.9787512524135664
      }
    },
    {
      "doubleSided": true,
      "name": "Material.010",
      "pbrMetallicRoughness": {
        "baseColorFactor": [
          0.0299967,
          0.0299967,
          0.0299967,
          1.0
        ],
        "metallicFactor": 0.0,
        "roughnessFactor": 0.9932925339699332
      }
    }
  ],
  "meshes": [
    {
      "name": "Circle.016_Material.002_0",
      "primitives": [
        {
          "attributes": {
            "NORMAL": 1,
            "POSITION": 0,
            "TEXCOORD_0": 2
          },
          "indices": 3,
          "material": 0,
          "mode": 4
        }
      ]
    },
    {
      "name": "Circle.016_Material.001_0",
      "primitives": [
        {
          "attributes": {
            "NORMAL": 5,
            "POSITION": 4,
            "TEXCOORD_0": 6
          },
          "indices": 7,
          "material": 1,
          "mode": 4
        }
      ]
    },
    {
      "name": "Circle.016_Material.004_0",
      "primitives": [
        {
          "attributes": {
            "NORMAL": 9,
            "POSITION": 8,
            "TEXCOORD_0": 10
          },
          "indices": 11,
          "material": 2,
          "mode": 4
        }
      ]
    },
    {
      "name": "Circle.016_Material.003_0",
      "primitives": [
        {
          "attributes": {
            "NORMAL": 13,
            "POSITION": 12,
            "TEXCOORD_0": 14
          },
          "indices": 15,
          "material": 3,
          "mode": 4
        }
      ]
    },
    {
      "name": "Circle.016_Material.007_0",
      "primitives": [
        {
          "attributes": {
            "NORMAL": 17,
            "POSITION": 16,
            "TEXCOORD_0": 18
          },
          "indices": 19,
          "material": 4,
          "mode": 4
        }
      ]
    },
    {
      "name": "Circle.016_Material.005_0",
      "primitives": [
        {
          "attributes": {
            "NORMAL": 21,
            "POSITION": 20,
            "TEXCOORD_0": 22
          },
          "indices": 23,
          "material": 5,
          "mode": 4
        }
      ]
    },
    {
      "name": "Circle.016_Material.006_0",
      "primitives": [
        {
          "attributes": {
            "NORMAL": 25,
            "POSITION": 24,
            "TEXCOORD_0": 26
          },
          "indices": 27,
          "material": 6,
          "mode": 4
        }
      ]
    },
    {
      "name": "Circle.016_Material.010_0",
      "primitives": [
        {
          "attributes": {
            "NORMAL": 29,
            "POSITION": 28,
            "TEXCOORD_0": 30
          },
          "indices": 31,
          "material": 7,
          "mode": 4
        }
      ]
    }
  ],
  "nodes": [
    {
      "children": [
        1
      ],
      "matrix": [
        1.0,
        0.0,
        0.0,
        0.0,
        0.0,
        2.220446049250313e-16,
        -1.0,
        0.0,
        0.0,
        1.0,
        2.220446049250313e-16,
        0.0,
        0.0,
        0.0,
        0.0,
        1.0
      ],
      "name": "Sketchfab_model"
    },
    {
      "children": [
        2
      ],
      "matrix": [
        0.009999999776482582,
        0.0,
        0.0,
        0.0,
        0.0,
        0.0,
        0.009999999776482582,
        0.0,
        0.0,
        -0.009999999776482582,
        0.0,
        0.0,
        0.0,
        0.0,
        0.0,
        1.0
      ],
      "name": "2734b21e89bc4b56a440c33ab7236975.fbx"
    },
    {
      "children": [
        3
      ],
      "name": "RootNode"
    },
    {
      "children": [
        4,
        5,
        6,
        7,
        8,
        9,
        10,
        11
      ],
      "matrix": [
        0.43413521967452273,
        -1.317988973473918e-17,
        -0.1923913337018792,
        0.0,
        -0.19239133370187902,
        -2.0756597025241892e-08,
        -0.43413521967452234,
        0.0,
        -8.409691041864358e-09,
        0.4748554825782771,
        -1.8976650292546677e-08,
        0.0,
        -42.14665985107422,
        42.48088455200195,
        -55.49655532836914,
        1.0
      ],
      "name": "Circle.016"
    },
    {
      "mesh": 0,
      "name": "Circle.016_Material.002_0"
    },
    {
      "mesh": 1,
      "name": "Circle.016_Material.001_0"
    },
    {
      "mesh": 2,
      "name": "Circle.016_Material.004_0"
    },
    {
      "mesh": 3,
      "name": "Circle.016_Material.003_0"
    },
    {
      "mesh": 4,
      "name": "Circle.016_Material.007_0"
    },
    {
      "mesh": 5,
      "name": "Circle.016_Material.005_0"
    },
    {
      "mesh": 6,
      "name": "Circle.016_Material.006_0"
    },
    {
      "mesh": 7,
      "name": "Circle.016_Material.010_0"
    }
  ],
  "scene": 0,
  "scenes": [
    {
      "name": "Sketchfab_Scene",
      "nodes": [
        0
      ]
    }
  ]
}
